<?xml version="1.0" standalone="no"?>
<!DOCTYPE svg PUBLIC "-//W3C//DTD SVG 20010904//EN"
 "http://www.w3.org/TR/2001/REC-SVG-20010904/DTD/svg10.dtd">
<svg version="1.0" xmlns="http://www.w3.org/2000/svg"
 width="700.000000pt" height="700.000000pt" viewBox="0 0 700.000000 700.000000"
 preserveAspectRatio="xMidYMid meet">
<metadata>
Created by potrace 1.11, written by Peter Selinger 2001-2013
</metadata>
<g transform="translate(0.000000,700.000000) scale(0.100000,-0.100000)"
fill="#000000" stroke="none">
<path d="M1100 6516 c-72 -16 -132 -48 -189 -100 -36 -34 -56 -44 -92 -49
-133 -18 -251 -104 -311 -225 -31 -62 -33 -73 -33 -172 0 -97 2 -110 32 -172
57 -120 185 -215 307 -226 42 -4 59 -12 96 -45 25 -22 74 -54 110 -71 59 -28
74 -31 166 -31 96 0 103 2 176 38 169 83 257 267 214 444 -15 64 -15 73 1 137
14 59 15 79 5 138 -29 169 -156 303 -320 337 -64 13 -91 13 -162 -3z m178
-217 c95 -46 130 -168 78 -273 l-27 -55 26 -50 c77 -153 -36 -321 -201 -296
-55 8 -99 38 -146 100 l-38 50 -67 -3 c-84 -4 -144 23 -186 83 -42 61 -47 130
-14 197 42 85 117 123 217 112 l56 -6 34 58 c59 99 166 132 268 83z"/>
<path d="M2957 6509 c-47 -11 -126 -51 -164 -83 -27 -23 -33 -24 -74 -14 -159
37 -354 -62 -432 -221 -30 -61 -32 -73 -32 -166 0 -55 3 -112 7 -126 7 -22 2
-29 -46 -61 l-53 -36 -90 5 c-70 4 -102 2 -144 -12 -167 -55 -274 -192 -286
-365 -6 -78 -7 -81 -39 -101 -46 -28 -98 -93 -129 -161 l-25 -55 -64 -11
c-277 -45 -429 -331 -307 -576 l29 -58 -29 -47 c-49 -80 -72 -165 -73 -271 -1
-94 5 -119 454 -1887 l454 -1793 1593 0 1592 0 10 38 c6 20 207 827 447 1792
406 1631 437 1761 437 1841 -1 95 -19 172 -64 260 l-28 57 30 59 c41 80 56
166 41 243 -33 180 -166 312 -344 342 l-65 11 -23 54 c-49 118 -176 214 -313
237 -69 12 -71 13 -83 49 -33 94 -132 194 -227 229 -33 12 -61 28 -63 37 -3 9
-19 44 -35 78 -38 77 -110 146 -193 183 l-63 29 -5 59 c-12 127 -107 254 -235
315 -62 29 -77 32 -163 32 -75 0 -105 -5 -140 -21 l-46 -21 -44 40 c-25 22
-74 54 -110 71 -59 28 -74 31 -165 31 -88 0 -107 -3 -159 -28 -33 -15 -79 -44
-104 -64 l-43 -36 -32 30 c-91 85 -234 122 -360 92z m183 -214 c58 -30 110
-112 110 -172 0 -75 76 -127 143 -99 42 17 55 39 67 113 16 96 73 157 166 177
77 17 175 -37 212 -118 26 -55 55 -76 104 -76 27 0 47 8 70 29 51 44 92 61
148 61 139 0 235 -136 189 -269 -23 -67 31 -131 110 -131 107 0 193 -78 207
-188 9 -73 44 -112 101 -112 22 0 61 -11 89 -25 73 -37 114 -108 114 -198 0
-30 7 -46 31 -69 29 -30 32 -30 87 -23 176 24 266 -33 281 -178 7 -63 30 -115
54 -119 6 -1 59 -2 117 -2 98 -1 108 -3 146 -29 43 -29 77 -81 88 -133 6 -28
-10 -124 -20 -124 -3 0 -21 11 -42 23 -73 46 -152 69 -255 75 -182 9 -312 -41
-438 -168 l-77 -77 -31 40 c-100 131 -265 207 -450 207 -154 0 -293 -55 -395
-158 -31 -32 -61 -64 -66 -72 -8 -12 -19 -5 -55 37 -54 62 -157 132 -240 163
-74 28 -250 39 -338 20 -97 -20 -213 -84 -287 -160 l-66 -67 -65 66 c-207 210
-538 231 -776 49 -28 -22 -66 -58 -84 -82 l-32 -41 -76 75 c-117 116 -245 170
-401 170 -94 0 -182 -21 -261 -61 -75 -37 -81 -32 -77 63 3 57 8 72 34 105 17
21 48 48 70 61 36 21 47 22 136 17 l98 -7 30 30 c25 25 30 39 30 79 1 88 66
182 139 198 39 8 81 58 81 95 0 16 -5 50 -11 77 -16 69 2 126 55 179 68 69
143 79 252 34 44 -19 80 -6 127 47 45 49 105 82 149 83 16 0 41 12 60 29 45
41 45 89 -2 154 -27 38 -35 59 -38 107 -8 107 50 183 159 210 39 10 54 9 107
-9 98 -33 116 -30 175 34 73 80 165 102 247 60z m-522 -1795 c146 -34 264
-156 286 -295 4 -29 56 -949 56 -1000 0 -3 -148 -5 -330 -5 l-330 0 -5 23
c-15 72 -135 895 -135 930 0 223 232 399 458 347z m1930 0 c113 -27 208 -101
256 -204 47 -100 45 -144 -31 -646 l-68 -445 -333 -3 -334 -2 7 87 c3 49 15
272 26 497 11 225 25 429 31 453 16 64 78 154 134 195 94 68 206 92 312 68z
m172 -2010 l0 -500 -1210 0 -1210 0 0 500 0 500 1210 0 1210 0 0 -500z m-1680
-752 c0 -24 11 -248 25 -498 14 -250 25 -481 25 -512 l0 -58 -200 0 c-152 0
-202 3 -205 13 -6 15 -165 1061 -165 1082 0 13 32 15 260 15 l260 0 0 -42z
m1450 32 c0 -23 -162 -1084 -166 -1092 -3 -4 -95 -8 -205 -8 l-199 0 0 63 c0
34 11 278 25 542 14 264 25 486 25 493 0 9 59 12 260 12 170 0 260 -4 260 -10z"/>
<path d="M6062 6319 c-71 -12 -153 -54 -209 -105 -37 -35 -54 -43 -99 -49
-116 -14 -245 -108 -298 -218 -121 -247 28 -531 306 -579 51 -9 71 -18 106
-50 24 -22 69 -52 100 -66 50 -24 69 -27 162 -27 97 0 110 2 170 31 84 40 155
111 194 194 37 78 47 196 24 277 -11 39 -11 55 -1 83 19 55 16 182 -6 244 -66
187 -254 298 -449 265z m146 -214 c111 -47 152 -170 96 -284 l-27 -53 24 -46
c12 -26 25 -69 27 -97 5 -65 -28 -128 -87 -170 -37 -26 -51 -30 -109 -30 -83
0 -124 23 -176 98 l-37 54 -54 -5 c-77 -6 -120 4 -161 40 -95 84 -98 214 -7
300 40 38 78 50 156 47 l69 -2 32 51 c34 55 72 90 114 102 44 13 100 11 140
-5z"/>
</g>
</svg>
